<svg xmlns="http://www.w3.org/2000/svg" xmlns:xlink="http://www.w3.org/1999/xlink" width="400" zoomAndPan="magnify" viewBox="0 0 300 149.999998" height="200" preserveAspectRatio="xMidYMid meet" version="1.0"><defs><g/></defs><g fill="#5084ac" fill-opacity="1"><g transform="translate(28.495125, 117.821183)"><g><path d="M 49.359375 -98.5625 L 49.359375 -95.25 L 37.625 -95.25 L 63.203125 -53.5625 L 74.625 -73.125 C 75.632812 -74.832031 76.765625 -76.8125 78.015625 -79.0625 C 79.273438 -81.320312 79.90625 -83.707031 79.90625 -86.21875 C 79.90625 -88.125 79.578125 -89.675781 78.921875 -90.875 C 78.265625 -92.082031 77.410156 -93.035156 76.359375 -93.734375 C 75.304688 -94.441406 74.148438 -94.894531 72.890625 -95.09375 C 71.640625 -95.289062 70.414062 -95.34375 69.21875 -95.25 L 69.21875 -98.5625 L 100.359375 -98.5625 L 100.359375 -95.25 C 97.648438 -94.34375 95.394531 -93.113281 93.59375 -91.5625 C 91.789062 -90.007812 89.785156 -87.675781 87.578125 -84.5625 C 86.367188 -83.0625 85.160156 -81.429688 83.953125 -79.671875 C 82.753906 -77.921875 81.601562 -76.164062 80.5 -74.40625 C 79.394531 -72.65625 78.390625 -71.050781 77.484375 -69.59375 C 76.585938 -68.132812 75.890625 -66.957031 75.390625 -66.0625 L 64.09375 -46.640625 L 64.09375 -3.3125 L 76.734375 -3.3125 L 76.734375 0 L 28.28125 0 L 28.28125 -3.3125 L 40.921875 -3.3125 L 40.921875 -45.4375 L 10.375 -95.25 L 2.109375 -95.25 L 2.109375 -98.5625 Z M 49.359375 -98.5625 "/></g></g></g><g fill="#5084ac" fill-opacity="1"><g transform="translate(160.156225, 117.821183)"><g><path d="M 60.03125 -98.5625 C 64.445312 -98.5625 68.4375 -98.03125 72 -96.96875 C 75.5625 -95.914062 78.695312 -94.640625 81.40625 -93.140625 C 84.113281 -91.640625 86.46875 -90.007812 88.46875 -88.25 C 90.476562 -86.488281 92.132812 -84.910156 93.4375 -83.515625 C 95.84375 -80.703125 97.820312 -77.863281 99.375 -75 C 100.9375 -72.144531 102.117188 -69.265625 102.921875 -66.359375 C 103.722656 -63.453125 104.273438 -60.539062 104.578125 -57.625 C 104.878906 -54.71875 105.03125 -51.757812 105.03125 -48.75 C 105.03125 -46.039062 104.851562 -42.957031 104.5 -39.5 C 104.144531 -36.039062 103.238281 -32.453125 101.78125 -28.734375 C 100.332031 -25.023438 98.226562 -21.335938 95.46875 -17.671875 C 92.707031 -14.015625 88.921875 -10.679688 84.109375 -7.671875 C 78.296875 -4.054688 73.082031 -1.875 68.46875 -1.125 C 63.851562 -0.375 60.289062 0 57.78125 0 L 6.3125 0 L 6.3125 -3.3125 L 18.953125 -3.3125 L 18.953125 -95.25 L 6.3125 -95.25 L 6.3125 -98.5625 Z M 42.125 -3.3125 L 49.8125 -3.3125 C 51.613281 -3.3125 53.441406 -3.332031 55.296875 -3.375 C 57.148438 -3.425781 58.953125 -3.628906 60.703125 -3.984375 C 62.460938 -4.335938 64.171875 -4.890625 65.828125 -5.640625 C 67.484375 -6.390625 69.0625 -7.46875 70.5625 -8.875 C 72.570312 -10.78125 74.128906 -13.0625 75.234375 -15.71875 C 76.335938 -18.382812 77.140625 -21.117188 77.640625 -23.921875 C 78.140625 -26.734375 78.4375 -29.515625 78.53125 -32.265625 C 78.632812 -35.023438 78.6875 -37.460938 78.6875 -39.578125 L 78.6875 -63.796875 C 78.6875 -67.804688 78.4375 -71.816406 77.9375 -75.828125 C 77.4375 -79.847656 75.785156 -83.660156 72.984375 -87.265625 C 71.472656 -89.171875 69.863281 -90.675781 68.15625 -91.78125 C 66.457031 -92.882812 64.753906 -93.6875 63.046875 -94.1875 C 61.335938 -94.695312 59.628906 -95 57.921875 -95.09375 C 56.222656 -95.195312 54.570312 -95.25 52.96875 -95.25 L 42.125 -95.25 Z M 42.125 -3.3125 "/></g></g></g><path stroke-linecap="butt" transform="matrix(0.000000001309, -0.75, 0.75, 0.000000001309, 148.676963, 121.386689)" fill="none" stroke-linejoin="miter" d="M 0.74996 0.498425 L 140.499968 0.498425 " stroke="#5084ac" stroke-width="1" stroke-opacity="1" stroke-miterlimit="4"/><path stroke-linecap="round" transform="matrix(0.000000001309, -0.75, 0.75, 0.000000001309, 148.676963, 121.386689)" fill="none" stroke-linejoin="round" d="M 0.49996 -1.001575 L 0.49996 1.998425 " stroke="#5084ac" stroke-width="1" stroke-opacity="1" stroke-miterlimit="4"/><path stroke-linecap="round" transform="matrix(0.000000001309, -0.75, 0.75, 0.000000001309, 148.676963, 121.386689)" fill="none" stroke-linejoin="round" d="M 140.749968 -1.001575 L 140.749968 1.998425 " stroke="#5084ac" stroke-width="1" stroke-opacity="1" stroke-miterlimit="4"/><path fill="#ffffff" d="M 80.191406 61.085938 L 255.910156 61.085938 C 259.398438 61.085938 262.226562 63.914062 262.226562 67.40625 L 262.226562 80.039062 C 262.226562 83.527344 259.398438 86.355469 255.910156 86.355469 L 80.191406 86.355469 C 76.703125 86.355469 73.875 83.527344 73.875 80.039062 L 73.875 67.40625 C 73.875 63.914062 76.703125 61.085938 80.191406 61.085938 Z M 80.191406 61.085938 " fill-opacity="0.62" fill-rule="nonzero"/><g fill="#162236" fill-opacity="1"><g transform="translate(82.443015, 78.188574)"><g/></g></g><g fill="#162236" fill-opacity="1"><g transform="translate(91.341007, 78.188574)"><g/></g></g><g fill="#162236" fill-opacity="1"><g transform="translate(100.239, 78.188574)"><g/></g></g><g fill="#162236" fill-opacity="1"><g transform="translate(109.144385, 78.188574)"><g><path d="M 5.328125 -3.609375 L 4.609375 0 L 3.484375 0 L 4.21875 -3.6875 L 1.34375 -10.71875 L 2.484375 -10.71875 L 4.96875 -4.6875 L 9.828125 -10.71875 L 11.046875 -10.71875 Z M 5.328125 -3.609375 "/></g></g></g><g fill="#162236" fill-opacity="1"><g transform="translate(123.754872, 78.188574)"><g><path d="M 5.9375 0.09375 C 4.894531 0.09375 4 -0.09375 3.25 -0.46875 C 2.507812 -0.84375 1.945312 -1.363281 1.5625 -2.03125 C 1.175781 -2.695312 0.984375 -3.472656 0.984375 -4.359375 C 0.984375 -5.535156 1.25 -6.613281 1.78125 -7.59375 C 2.3125 -8.582031 3.066406 -9.363281 4.046875 -9.9375 C 5.023438 -10.519531 6.15625 -10.8125 7.4375 -10.8125 C 8.476562 -10.8125 9.367188 -10.625 10.109375 -10.25 C 10.859375 -9.875 11.429688 -9.351562 11.828125 -8.6875 C 12.222656 -8.019531 12.421875 -7.242188 12.421875 -6.359375 C 12.421875 -5.179688 12.148438 -4.097656 11.609375 -3.109375 C 11.078125 -2.128906 10.320312 -1.347656 9.34375 -0.765625 C 8.363281 -0.191406 7.226562 0.09375 5.9375 0.09375 Z M 6.046875 -0.921875 C 7.078125 -0.921875 7.988281 -1.160156 8.78125 -1.640625 C 9.582031 -2.128906 10.195312 -2.785156 10.625 -3.609375 C 11.0625 -4.429688 11.28125 -5.332031 11.28125 -6.3125 C 11.28125 -7.375 10.9375 -8.21875 10.25 -8.84375 C 9.570312 -9.476562 8.597656 -9.796875 7.328125 -9.796875 C 6.296875 -9.796875 5.382812 -9.550781 4.59375 -9.0625 C 3.800781 -8.582031 3.1875 -7.929688 2.75 -7.109375 C 2.3125 -6.285156 2.09375 -5.390625 2.09375 -4.421875 C 2.09375 -3.347656 2.4375 -2.492188 3.125 -1.859375 C 3.8125 -1.234375 4.785156 -0.921875 6.046875 -0.921875 Z M 6.046875 -0.921875 "/></g></g></g><g fill="#162236" fill-opacity="1"><g transform="translate(141.489616, 78.188574)"><g><path d="M 8.296875 -2.859375 L 2.3125 -2.859375 L 0.453125 0 L -0.765625 0 L 6.28125 -10.71875 L 7.390625 -10.71875 L 10.15625 0 L 9.015625 0 Z M 8.078125 -3.78125 L 6.625 -9.5625 L 2.890625 -3.78125 Z M 8.078125 -3.78125 "/></g></g></g><g fill="#162236" fill-opacity="1"><g transform="translate(157.355937, 78.188574)"><g><path d="M 12.03125 -10.71875 L 9.890625 0 L 8.96875 0 L 3.84375 -8.875 L 2.0625 0 L 0.953125 0 L 3.09375 -10.71875 L 4.015625 -10.71875 L 9.140625 -1.84375 L 10.921875 -10.71875 Z M 12.03125 -10.71875 "/></g></g></g><g fill="#162236" fill-opacity="1"><g transform="translate(174.692497, 78.188574)"><g/></g></g><g fill="#162236" fill-opacity="1"><g transform="translate(183.590488, 78.188574)"><g><path d="M 3.09375 -10.71875 L 7.171875 -10.71875 C 8.234375 -10.71875 9.144531 -10.535156 9.90625 -10.171875 C 10.664062 -9.816406 11.238281 -9.3125 11.625 -8.65625 C 12.019531 -8 12.21875 -7.234375 12.21875 -6.359375 C 12.21875 -5.109375 11.941406 -4.003906 11.390625 -3.046875 C 10.835938 -2.085938 10.054688 -1.335938 9.046875 -0.796875 C 8.046875 -0.265625 6.882812 0 5.5625 0 L 0.953125 0 Z M 5.59375 -0.984375 C 6.707031 -0.984375 7.675781 -1.207031 8.5 -1.65625 C 9.332031 -2.113281 9.972656 -2.742188 10.421875 -3.546875 C 10.867188 -4.359375 11.09375 -5.28125 11.09375 -6.3125 C 11.09375 -7.375 10.75 -8.207031 10.0625 -8.8125 C 9.375 -9.425781 8.367188 -9.734375 7.046875 -9.734375 L 4.015625 -9.734375 L 2.265625 -0.984375 Z M 5.59375 -0.984375 "/></g></g></g><g fill="#162236" fill-opacity="1"><g transform="translate(201.126135, 78.188574)"><g><path d="M 4.015625 -9.734375 L 3.25 -5.921875 L 8.796875 -5.921875 L 8.625 -4.96875 L 3.0625 -4.96875 L 2.265625 -0.984375 L 8.71875 -0.984375 L 8.515625 0 L 0.953125 0 L 3.09375 -10.71875 L 10.4375 -10.71875 L 10.25 -9.734375 Z M 4.015625 -9.734375 "/></g></g></g><g fill="#162236" fill-opacity="1"><g transform="translate(216.257338, 78.188574)"><g><path d="M 11.984375 -10.71875 L 5.09375 0 L 4 0 L 1.375 -10.71875 L 2.546875 -10.71875 L 4.796875 -1.421875 L 10.796875 -10.71875 Z M 11.984375 -10.71875 "/></g></g></g><g fill="#162236" fill-opacity="1"><g transform="translate(231.843063, 78.188574)"><g/></g></g><g fill="#162236" fill-opacity="1"><g transform="translate(240.741055, 78.188574)"><g/></g></g><g fill="#162236" fill-opacity="1"><g transform="translate(249.639048, 78.188574)"><g/></g></g></svg>